<mxfile host="app.diagrams.net" agent="Mozilla/5.0 (X11; Linux x86_64; rv:135.0) Gecko/20100101 Firefox/135.0" version="26.1.0">
  <diagram name="Page-1" id="l5lLrh99zBYGLKqL5wEY">
    <mxGraphModel dx="1190" dy="634" grid="1" gridSize="10" guides="1" tooltips="1" connect="1" arrows="1" fold="1" page="1" pageScale="1" pageWidth="850" pageHeight="1100" math="0" shadow="0">
      <root>
        <mxCell id="0" />
        <mxCell id="1" parent="0" />
        <mxCell id="l157jQcFLLMVn80aBD_F-1" value="&lt;div&gt;Router&lt;/div&gt;&lt;div&gt;&lt;br&gt;&lt;/div&gt;" style="sketch=0;aspect=fixed;pointerEvents=1;shadow=0;dashed=0;html=1;strokeColor=none;labelPosition=center;verticalLabelPosition=bottom;verticalAlign=top;align=center;fillColor=#00188D;shape=mxgraph.mscae.enterprise.router" vertex="1" parent="1">
          <mxGeometry x="382.36" y="270" width="89.75" height="70" as="geometry" />
        </mxCell>
        <mxCell id="l157jQcFLLMVn80aBD_F-2" value="Switch" style="image;html=1;image=img/lib/clip_art/networking/Switch_128x128.png" vertex="1" parent="1">
          <mxGeometry x="382.36" y="460" width="95.12" height="50" as="geometry" />
        </mxCell>
        <mxCell id="l157jQcFLLMVn80aBD_F-3" value="" style="endArrow=none;html=1;rounded=0;" edge="1" parent="1">
          <mxGeometry width="50" height="50" relative="1" as="geometry">
            <mxPoint x="430.04" y="450" as="sourcePoint" />
            <mxPoint x="429.94864864864854" y="370" as="targetPoint" />
          </mxGeometry>
        </mxCell>
        <mxCell id="l157jQcFLLMVn80aBD_F-4" value="&lt;div&gt;Printer&lt;/div&gt;&lt;div&gt;&lt;br&gt;&lt;/div&gt;" style="verticalLabelPosition=bottom;sketch=0;aspect=fixed;html=1;verticalAlign=top;strokeColor=none;align=center;outlineConnect=0;shape=mxgraph.citrix.printer;" vertex="1" parent="1">
          <mxGeometry x="635.04" y="560" width="70" height="70" as="geometry" />
        </mxCell>
        <mxCell id="l157jQcFLLMVn80aBD_F-5" value="Laptop" style="image;html=1;image=img/lib/clip_art/computers/Laptop_128x128.png" vertex="1" parent="1">
          <mxGeometry x="175.04" y="700" width="80" height="80" as="geometry" />
        </mxCell>
        <mxCell id="l157jQcFLLMVn80aBD_F-6" value="Desktop" style="image;points=[];aspect=fixed;html=1;align=center;shadow=0;dashed=0;image=img/lib/allied_telesis/computer_and_terminals/Personal_Computer_with_Server.svg;" vertex="1" parent="1">
          <mxGeometry x="395.08000000000004" y="628" width="82.4" height="82.4" as="geometry" />
        </mxCell>
        <mxCell id="l157jQcFLLMVn80aBD_F-7" value="" style="endArrow=none;html=1;rounded=0;entryX=0;entryY=1;entryDx=0;entryDy=0;" edge="1" parent="1" target="l157jQcFLLMVn80aBD_F-2">
          <mxGeometry width="50" height="50" relative="1" as="geometry">
            <mxPoint x="275.04" y="540" as="sourcePoint" />
            <mxPoint x="375.04" y="500" as="targetPoint" />
          </mxGeometry>
        </mxCell>
        <mxCell id="l157jQcFLLMVn80aBD_F-8" value="" style="endArrow=none;html=1;rounded=0;" edge="1" parent="1">
          <mxGeometry width="50" height="50" relative="1" as="geometry">
            <mxPoint x="435.04" y="610" as="sourcePoint" />
            <mxPoint x="432.23" y="540" as="targetPoint" />
          </mxGeometry>
        </mxCell>
        <mxCell id="l157jQcFLLMVn80aBD_F-9" value="" style="endArrow=none;html=1;rounded=0;" edge="1" parent="1" source="l157jQcFLLMVn80aBD_F-4">
          <mxGeometry width="50" height="50" relative="1" as="geometry">
            <mxPoint x="615.04" y="570" as="sourcePoint" />
            <mxPoint x="459.04" y="510" as="targetPoint" />
          </mxGeometry>
        </mxCell>
        <mxCell id="l157jQcFLLMVn80aBD_F-10" value="" style="endArrow=classic;html=1;rounded=0;" edge="1" parent="1">
          <mxGeometry width="50" height="50" relative="1" as="geometry">
            <mxPoint x="426.89" y="270" as="sourcePoint" />
            <mxPoint x="426.89" y="240" as="targetPoint" />
          </mxGeometry>
        </mxCell>
        <mxCell id="l157jQcFLLMVn80aBD_F-11" value="&lt;div&gt;Internet&lt;/div&gt;" style="text;html=1;align=center;verticalAlign=middle;whiteSpace=wrap;rounded=0;" vertex="1" parent="1">
          <mxGeometry x="395.00000000000006" y="200" width="60" height="30" as="geometry" />
        </mxCell>
        <mxCell id="l157jQcFLLMVn80aBD_F-12" value="&lt;div&gt;WAP&lt;/div&gt;&lt;div&gt;&lt;br&gt;&lt;/div&gt;" style="image;html=1;image=img/lib/clip_art/networking/Wireless_Router_N_128x128.png" vertex="1" parent="1">
          <mxGeometry x="175.04" y="500" width="80" height="80" as="geometry" />
        </mxCell>
        <mxCell id="l157jQcFLLMVn80aBD_F-13" value="" style="endArrow=none;dashed=1;html=1;dashPattern=1 3;strokeWidth=2;rounded=0;" edge="1" parent="1">
          <mxGeometry width="50" height="50" relative="1" as="geometry">
            <mxPoint x="215.04" y="690" as="sourcePoint" />
            <mxPoint x="215.04" y="610" as="targetPoint" />
          </mxGeometry>
        </mxCell>
      </root>
    </mxGraphModel>
  </diagram>
</mxfile>
